<svg width="133" height="34" viewBox="0 0 133 34" fill="none" xmlns="http://www.w3.org/2000/svg">
<path d="M44.7954 0.5C36.9119 0.5 30.4963 6.91346 30.4963 14.799H35.2524C35.2524 9.5365 39.5328 5.25605 44.7954 5.25605C50.0579 5.25605 54.3384 9.5365 54.3384 14.799H59.0944C59.0944 6.91346 52.681 0.5 44.7954 0.5Z" fill="#1C1C1C"/>
<path d="M46.385 19.8619L42.8128 16.722L31.8059 29.2401L33.591 33.1891H55.9979V28.4331H38.8473L46.385 19.8619Z" fill="#1C1C1C"/>
<path d="M82.3806 25.7318C80.5791 27.5333 78.1805 28.5278 75.6316 28.5278C70.369 28.5278 66.0886 24.2473 66.0886 18.9848H61.3325C61.3325 26.8703 67.748 33.2838 75.6316 33.2838C79.4508 33.2838 83.0415 31.7973 85.7428 29.096C88.4441 26.3947 89.9306 22.804 89.9306 18.9848H85.1745C85.1745 21.5337 84.1822 23.9302 82.3786 25.7338L82.3806 25.7318Z" fill="#1C1C1C"/>
<path d="M74.044 13.9199L77.6141 17.0597L88.621 4.54162L86.8359 0.592651H64.429V5.3487H81.5796L74.044 13.9199Z" fill="#1C1C1C"/>
<path d="M28.5981 11.5192C28.5981 5.54636 23.3458 0.685303 16.8891 0.685303H0V32.7732H4.75605V22.3531H15.6167L25.3738 33.5L28.9749 30.3952L21.2499 21.5728C25.5509 19.971 28.596 16.0694 28.596 11.5213L28.5981 11.5192ZM4.75605 5.44136H16.8891C20.7228 5.44136 23.842 8.16733 23.842 11.5192C23.842 14.8711 20.7228 17.5971 16.8891 17.5971H4.75605V5.4393V5.44136Z" fill="#1C1C1C"/>
<path d="M106.465 19.7589L99.4014 0.592651H92.1705V32.7732H96.9266V7.62996L103.733 26.0962H109.204L116.013 7.54761V32.7732H120.769V0.592651H113.501L106.465 19.7589Z" fill="#1C1C1C"/>
<path d="M131.228 2.55477C130.275 1.63033 129.128 1.18149 127.783 1.18149C126.439 1.18149 125.29 1.63033 124.339 2.55477C123.414 3.45039 122.939 4.57249 122.939 5.88813C122.939 7.20376 123.414 8.32586 124.339 9.25031C125.292 10.1748 126.439 10.6236 127.783 10.6236C129.128 10.6236 130.248 10.1748 131.201 9.25031C132.181 8.32586 132.657 7.20582 132.657 5.88813C132.657 4.57043 132.181 3.45039 131.228 2.55477ZM127.783 9.27913C125.85 9.27913 124.339 7.82143 124.339 5.89019C124.339 3.95894 125.852 2.50124 127.783 2.50124C129.715 2.50124 131.201 3.90129 131.201 5.89019C131.201 7.87908 129.717 9.27913 127.783 9.27913Z" fill="#1C1C1C"/>
<path d="M129.575 5.02132C129.575 4.15246 128.901 3.48126 127.979 3.48126H126.074V8.15908H127.25V6.61902H127.67L128.566 8.15908H129.939L128.846 6.36578C129.321 6.08577 129.575 5.63693 129.575 5.02132ZM127.895 5.69252H127.25V4.51689H127.921C128.23 4.51689 128.452 4.77013 128.452 5.07691C128.452 5.49692 128.257 5.69252 127.892 5.69252H127.895Z" fill="#1C1C1C"/>
</svg>
