<svg width="427" height="106" viewBox="0 0 427 106" fill="none" xmlns="http://www.w3.org/2000/svg">
<path d="M143.888 0C118.565 0 97.958 20.6008 97.958 45.9302H113.235C113.235 29.0263 126.984 15.277 143.888 15.277C160.792 15.277 174.542 29.0263 174.542 45.9302H189.819C189.819 20.6008 169.218 0 143.888 0Z" fill="white"/>
<path d="M148.994 62.1927L137.52 52.1072L102.164 92.3168L107.898 105.001H179.872V89.7243H124.782L148.994 62.1927Z" fill="white"/>
<path d="M264.616 81.0476C258.83 86.8343 251.125 90.0286 242.938 90.0286C226.034 90.0286 212.284 76.2793 212.284 59.3754H197.007C197.007 84.7048 217.615 105.306 242.938 105.306C255.205 105.306 266.739 100.531 275.416 91.8539C284.093 83.1771 288.868 71.6433 288.868 59.3754H273.591C273.591 67.5628 270.403 75.2608 264.61 81.0542L264.616 81.0476Z" fill="white"/>
<path d="M237.838 43.1063L249.306 53.1918L284.662 12.9822L278.928 0.297607H206.954V15.5746H262.044L237.838 43.1063Z" fill="white"/>
<path d="M91.8606 35.3951C91.8606 16.2095 74.9898 0.595215 54.2501 0.595215H0.00012207V103.665H15.2771V70.1949H50.163L81.504 106L93.0709 96.027L68.2573 67.6884C82.0727 62.5432 91.854 50.0107 91.854 35.4017L91.8606 35.3951ZM15.2771 15.8722H54.2501C66.5643 15.8722 76.5836 24.6284 76.5836 35.3951C76.5836 46.1617 66.5643 54.9179 54.2501 54.9179H15.2771V15.8656V15.8722Z" fill="white"/>
<path d="M341.98 61.862L319.289 0.297607H296.063V103.665H311.34V22.9023L333.204 82.2181H350.776L372.646 22.6378V103.665H387.923V0.297607H364.578L341.98 61.862Z" fill="white"/>
<path d="M421.52 6.60012C418.458 3.63069 414.774 2.18896 410.456 2.18896C406.137 2.18896 402.447 3.63069 399.391 6.60012C396.422 9.47696 394.894 13.0813 394.894 17.3073C394.894 21.5332 396.422 25.1376 399.391 28.107C402.453 31.0764 406.137 32.5181 410.456 32.5181C414.774 32.5181 418.372 31.0764 421.434 28.107C424.582 25.1376 426.11 21.5399 426.11 17.3073C426.11 13.0747 424.582 9.47696 421.52 6.60012ZM410.456 28.1996C404.246 28.1996 399.391 23.5173 399.391 17.3139C399.391 11.1105 404.252 6.42817 410.456 6.42817C416.659 6.42817 421.434 10.9253 421.434 17.3139C421.434 23.7024 416.666 28.1996 410.456 28.1996Z" fill="white"/>
<path d="M416.209 14.523C416.209 11.7321 414.047 9.57617 411.084 9.57617H404.967V24.6019H408.743V19.655H410.092L412.969 24.6019H417.38L413.868 18.8416C415.396 17.9422 416.209 16.5004 416.209 14.523ZM410.813 16.679H408.743V12.9027H410.899C411.891 12.9027 412.605 13.7162 412.605 14.7016C412.605 16.0507 411.977 16.679 410.806 16.679H410.813Z" fill="white"/>
</svg>
