<svg width="81" height="20" viewBox="0 0 81 20" fill="none" xmlns="http://www.w3.org/2000/svg">
<path d="M27.1487 0C22.3708 0 18.4826 3.88695 18.4826 8.66608H21.3651C21.3651 5.47667 23.9593 2.88246 27.1487 2.88246C30.3381 2.88246 32.9324 5.47667 32.9324 8.66608H35.8148C35.8148 3.88695 31.9279 0 27.1487 0Z" fill="#1C1C1C"/>
<path d="M28.1121 11.7345L25.9471 9.83154L19.2763 17.4183L20.3582 19.8116H33.9381V16.9291H23.5438L28.1121 11.7345Z" fill="#1C1C1C"/>
<path d="M49.9276 15.292C48.8358 16.3838 47.3821 16.9865 45.8373 16.9865C42.6479 16.9865 40.0537 14.3923 40.0537 11.2029H37.1712C37.1712 15.982 41.0594 19.869 45.8373 19.869C48.152 19.869 50.3282 18.9681 51.9653 17.3309C53.6024 15.6938 54.5034 13.5176 54.5034 11.2029H51.6209C51.6209 12.7477 51.0195 14.2002 49.9264 15.2933L49.9276 15.292Z" fill="#1C1C1C"/>
<path d="M44.8752 8.13327L47.0389 10.0362L53.7097 2.44946L52.6278 0.0561523H39.0479V2.93861H49.4422L44.8752 8.13327Z" fill="#1C1C1C"/>
<path d="M17.3322 6.67831C17.3322 3.0584 14.149 0.112305 10.2358 0.112305H0V19.5595H2.88246V13.2443H9.46469L15.3781 20L17.5605 18.1183L12.8787 12.7714C15.4854 11.8006 17.3309 9.43599 17.3309 6.67956L17.3322 6.67831ZM2.88246 2.99476H10.2358C12.5593 2.99476 14.4497 4.64687 14.4497 6.67831C14.4497 8.70976 12.5593 10.3619 10.2358 10.3619H2.88246V2.99351V2.99476Z" fill="#1C1C1C"/>
<path d="M64.5245 11.6721L60.2433 0.0561523H55.861V19.5595H58.7434V4.32119L62.8687 15.5129H66.1841L70.3107 4.27128V19.5595H73.1931V0.0561523H68.7883L64.5245 11.6721Z" fill="#1C1C1C"/>
<path d="M79.532 1.24526C78.9543 0.684988 78.2592 0.412964 77.4444 0.412964C76.6296 0.412964 75.9333 0.684988 75.3568 1.24526C74.7965 1.78806 74.5083 2.46812 74.5083 3.26547C74.5083 4.06283 74.7965 4.74289 75.3568 5.30316C75.9346 5.86343 76.6296 6.13545 77.4444 6.13545C78.2592 6.13545 78.938 5.86343 79.5158 5.30316C80.1097 4.74289 80.398 4.06407 80.398 3.26547C80.398 2.46687 80.1097 1.78806 79.532 1.24526ZM77.4444 5.32063C76.2727 5.32063 75.3568 4.43717 75.3568 3.26672C75.3568 2.09627 76.274 1.21281 77.4444 1.21281C78.6149 1.21281 79.5158 2.06133 79.5158 3.26672C79.5158 4.47211 78.6161 5.32063 77.4444 5.32063Z" fill="#1C1C1C"/>
<path d="M78.53 2.74025C78.53 2.21367 78.122 1.80688 77.563 1.80688H76.4088V4.64192H77.1213V3.70856H77.3758L77.9186 4.64192H78.7509L78.0883 3.55508C78.3766 3.38537 78.53 3.11335 78.53 2.74025ZM77.5118 3.14704H77.1213V2.43454H77.528C77.7152 2.43454 77.85 2.58802 77.85 2.77394C77.85 3.0285 77.7314 3.14704 77.5106 3.14704H77.5118Z" fill="#1C1C1C"/>
</svg>
